<?xml version="1.0" encoding="UTF-8" standalone="no"?>
<svg
   xmlns:dc="http://purl.org/dc/elements/1.1/"
   xmlns:cc="http://creativecommons.org/ns#"
   xmlns:rdf="http://www.w3.org/1999/02/22-rdf-syntax-ns#"
   xmlns:svg="http://www.w3.org/2000/svg"
   xmlns="http://www.w3.org/2000/svg"
   viewBox="0 0 636.08002 544.32001"
   height="544.32001"
   width="636.08002"
   xml:space="preserve"
   id="svg2"
   version="1.1"><metadata
     id="metadata8"><rdf:RDF><cc:Work
         rdf:about=""><dc:format>image/svg+xml</dc:format><dc:type
           rdf:resource="http://purl.org/dc/dcmitype/StillImage" /></cc:Work></rdf:RDF></metadata><defs
     id="defs6" /><g
     transform="matrix(1.3333333,0,0,-1.3333333,0,544.32)"
     id="g10"><g
       transform="scale(0.1)"
       id="g12"><path
         id="path14"
         style="fill:#f3f2f1;fill-opacity:1;fill-rule:nonzero;stroke:none"
         d="m 4071.94,2392.18 c 931.51,-547.24 931.51,-1434.5 -0.02,-1981.739 -931.51,-547.242 -2441.78,-547.25 -3373.291,-0.011 -931.512,547.242 -931.504,1434.5 0.008,1981.75 931.513,547.24 2441.793,547.24 3373.303,0" /><path
         id="path16"
         style="fill:#dadbd8;fill-opacity:1;fill-rule:nonzero;stroke:none"
         d="M 224.887,1301.93 1350.86,651.852 c 25.63,-14.801 67.18,-14.801 92.81,0 L 3564.03,1876.05 c 25.63,14.79 25.63,38.78 0,53.58 l -1125.96,650.09 c -25.63,14.79 -67.18,14.8 -92.8,0 L 224.887,1355.51 c -25.625,-14.79 -25.625,-38.78 0,-53.58" /><path
         id="path18"
         style="fill:#dadbd8;fill-opacity:1;fill-rule:nonzero;stroke:none"
         d="m 4377.09,1302.42 c 146.51,-84.59 146.51,-221.74 0,-306.33 -146.51,-84.59 -384.06,-84.59 -530.58,0 -146.51,84.59 -146.5,221.74 0,306.33 146.52,84.59 384.07,84.59 530.58,0" /><path
         id="path20"
         style="fill:#dadbd8;fill-opacity:1;fill-rule:nonzero;stroke:none"
         d="m 3459.14,1231.32 c 217.95,-125.83 217.95,-329.851 0,-455.679 -217.95,-125.84 -571.32,-125.84 -789.26,0 -217.95,125.828 -217.95,329.839 0,455.679 217.95,125.83 571.31,125.83 789.26,0" /><path
         id="path22"
         style="fill:#17282f;fill-opacity:1;fill-rule:nonzero;stroke:none"
         d="m 300.082,1526.21 c -15.785,-12.23 -14.074,-29.59 5.082,-40.58 L 1353.55,880.262 c 21.06,-12.082 55.23,-12.09 76.26,0.058 l 2003.63,1156.79 c 19.39,11.19 20.97,28.84 4.48,41.02 18.94,-13.42 33.64,-40.49 33.65,-63.1 l 0.07,-50.39 c 0.07,-24.31 -17.01,-53.91 -38.13,-66.11 L 1429.97,741.789 c -21.12,-12.199 -55.29,-12.18 -76.31,0.031 L 305.234,1347.06 c -21.058,12.08 -38.148,41.68 -38.132,66.04 l -0.114,50.49 c 0.047,22.3 14.387,49.05 33.094,62.62" /><path
         id="path24"
         style="fill:#33535f;fill-opacity:1;fill-rule:nonzero;stroke:none"
         d="m 2147.55,2529.94 c 18.01,10.4 36.78,4.39 54.83,-6.08 l 953.28,-550.4 c 18,-10.39 18.08,-27.31 -0.02,-37.76 L 1595.67,1035.05 c -18.09,-10.44 -47.33,-10.36 -65.42,-0.03 l -953.199,550.45 c -18.137,10.42 -18.078,27.31 -0.071,37.7 l 1570.57,906.77 M 305.164,1485.63 1353.55,880.262 c 21.06,-12.082 55.23,-12.09 76.26,0.058 l 2003.63,1156.79 c 21.03,12.14 21.06,31.89 0.01,43.97 l -1048.4,605.37 c -21.05,12.09 -55.23,12.09 -76.26,-0.05 L 305.164,1529.61 c -21.031,-12.14 -21.059,-31.9 0,-43.98" /><path
         id="path26"
         style="fill:#273e47;fill-opacity:1;fill-rule:nonzero;stroke:none"
         d="m 3437.92,2078.13 c 18.94,-13.42 33.64,-40.48 33.65,-63.1 l 0.07,-50.39 c -0.02,-24.36 -17.01,-53.91 -38.13,-66.11 L 1429.97,741.789 c -10.56,-6.098 -24.39,-9.117 -38.23,-9.141 l -0.07,138.563 c 13.83,0.031 27.67,3.059 38.14,9.109 l 2003.63,1156.79 c 19.39,11.19 20.97,28.84 4.48,41.02" /><path
         id="path28"
         style="fill:#040606;fill-opacity:1;fill-rule:nonzero;stroke:none"
         d="m 2808.69,2324.32 c -14.12,8.16 -14.12,21.37 0,29.52 14.11,8.15 37,8.15 51.11,0 14.13,-8.15 14.13,-21.36 0,-29.52 -14.11,-8.14 -37,-8.14 -51.11,0" /><path
         id="path30"
         style="fill:#e2e2e0;fill-opacity:1;fill-rule:nonzero;stroke:none"
         d="m 868.227,1217.31 2.5,4.33 c -15.672,9.1 -22.45,20.19 -22.43,30.42 -0.02,10.23 6.758,21.32 22.43,30.42 15.597,9.03 36.636,13.74 57.695,13.73 21.055,0.01 42.094,-4.7 57.691,-13.73 15.677,-9.1 22.447,-20.19 22.427,-30.42 0.02,-10.23 -6.75,-21.32 -22.427,-30.42 -15.597,-9.03 -36.636,-13.74 -57.691,-13.73 -21.059,-0.01 -42.098,4.7 -57.695,13.73 l -2.5,-4.33 -2.5,-4.33 c 17.644,-10.16 40.175,-15.05 62.695,-15.07 22.516,0.02 45.047,4.91 62.691,15.07 17.567,10.09 27.417,24.15 27.427,39.08 -0.01,14.93 -9.86,28.99 -27.427,39.08 -17.644,10.16 -40.175,15.05 -62.691,15.07 -22.52,-0.02 -45.051,-4.91 -62.695,-15.07 -17.567,-10.09 -27.414,-24.15 -27.43,-39.08 0.016,-14.92 9.863,-28.99 27.43,-39.08 l 2.5,4.33" /><path
         id="path32"
         style="fill:#040606;fill-opacity:1;fill-rule:nonzero;stroke:none"
         d="m 2833.93,2226.41 -197.36,113.93 c -11.77,6.8 -12.36,17.48 -1.32,23.86 11.05,6.37 29.54,6.03 41.32,-0.76 l 197.36,-113.95 c 11.77,-6.8 12.36,-17.47 1.31,-23.85 -11.04,-6.37 -29.54,-6.03 -41.31,0.77" /><path
         id="path34"
         style="fill:#26b6a6;fill-opacity:1;fill-rule:nonzero;stroke:none"
         d="m 2147.55,2529.94 c 18.01,10.4 36.78,4.39 54.83,-6.08 l 953.28,-550.4 c 18,-10.39 18.08,-27.31 -0.02,-37.76 L 1595.67,1035.05 c -18.09,-10.44 -47.33,-10.36 -65.42,-0.03 l -953.199,550.45 c -18.137,10.42 -18.078,27.31 -0.071,37.7 l 1570.57,906.77" /><path
         id="path36"
         style="fill:#bee9e1;fill-opacity:1;fill-rule:nonzero;stroke:none"
         d="m 1563,1027.25 c -11.85,0 -23.7,2.6 -32.75,7.77 l -953.199,550.45 c -9.067,5.21 -13.586,12.04 -13.59,18.86 0,6.83 4.516,13.65 13.519,18.84 l 24.543,14.17 c 6.911,-9.88 15.575,-18.57 25.575,-25.28 6.785,-4.55 22.539,-14.22 33.761,-14.22 2.454,0 4.692,0.46 6.567,1.54 1.601,0.92 183.273,105.61 183.898,106.24 v 0 l 66.281,37.87 c 0,0 5.985,32.96 10.817,82.59 l 92.208,53.24 v -251.35 c 0,-6.15 4.07,-12.3 12.19,-17 8.13,-4.69 18.79,-7.04 29.45,-7.04 10.65,0 21.31,2.35 29.44,7.04 8.13,4.7 12.2,10.85 12.2,17 v 299.43 l 1043.64,602.54 c 6.58,3.8 13.26,5.41 19.98,5.41 11.65,0 23.39,-4.85 34.85,-11.49 l 656.87,-379.26 c 3.34,-128.34 6.98,-231.6 8.41,-258.68 1.9,-36.27 3.07,-73.12 4.79,-113.72 L 1595.67,1035.05 c -9.03,-5.21 -20.85,-7.8 -32.67,-7.8 m 1547.47,882.37 8.25,85.17 36.94,-21.33 c 9,-5.19 13.52,-12.02 13.53,-18.86 0.01,-6.83 -4.5,-13.68 -13.55,-18.9 l -45.17,-26.08" /><path
         id="path38"
         style="fill:#26b6a6;fill-opacity:1;fill-rule:nonzero;stroke:none"
         d="m 851.324,1705.62 66.281,37.87 c 0,0 31.79,175.19 8.016,325.79 -33.426,211.74 -177.594,284.77 -229.953,263.72 -52.359,-21.04 -64.664,-83.77 29.898,-206.11 55.789,-72.18 127.547,-224.77 125.758,-421.27" /><path
         id="path40"
         style="fill:#06ab91;fill-opacity:1;fill-rule:nonzero;stroke:none"
         d="m 851.324,1705.62 c 0,0 25.129,35.46 33.68,55.28 10.348,23.98 13.504,39.8 15.312,61.36 0.2,2.39 0.309,4.77 0.309,7.14 0.008,10.28 -2.008,20.29 -7.387,29.17 -2.328,3.85 -4.937,7.35 -7.718,10.63 2.007,178.43 -70.243,357.5 -150.137,435.57 -0.918,0.9 -2.106,1.34 -3.293,1.34 -1.231,0 -2.461,-0.47 -3.395,-1.41 -1.824,-1.86 -1.789,-4.87 0.075,-6.68 77.023,-75.27 146.761,-246.41 147.367,-418.93 -13.403,12.97 -27.922,23.93 -34.192,42.83 -1.722,5.21 -2.406,10.55 -2.41,15.98 -0.023,20.05 9.184,41.25 9.153,60.86 -0.008,7.06 -1.215,13.91 -4.481,20.43 -7.496,14.97 -24.008,23.24 -40.203,27.52 -10.727,2.84 -21.82,4.4 -32.602,6.95 -15.293,29.56 -31.121,54.19 -45.836,73.23 -50.144,64.88 -70.238,112.99 -70.242,147.01 -0.008,30.13 15.75,49.22 40.344,59.1 5.711,2.3 12.508,3.47 20.141,3.47 62.343,0 180.035,-78.55 209.812,-267.19 6.477,-41.03 8.828,-83.89 8.824,-124.53 -0.011,-108.53 -16.84,-201.26 -16.84,-201.26 l -66.281,-37.87" /><path
         id="path42"
         style="fill:#ffffff;fill-opacity:1;fill-rule:nonzero;stroke:none"
         d="m 875.352,1789.71 -0.657,0.04 c -2.586,0.37 -4.39,2.75 -4.031,5.33 27.391,198.23 -52.324,415.41 -141.894,502.94 -1.864,1.81 -1.899,4.82 -0.075,6.68 1.832,1.84 4.821,1.9 6.688,0.07 91.199,-89.12 172.437,-309.83 144.637,-510.98 -0.325,-2.37 -2.356,-4.08 -4.668,-4.08" /><path
         id="path44"
         style="fill:#26b6a6;fill-opacity:1;fill-rule:nonzero;stroke:none"
         d="m 667.426,1599.38 c -10.473,-6.01 -32.059,7.13 -40.328,12.68 -14.153,9.5 -25.621,22.95 -33.243,38.16 -8.867,17.7 -11.097,36.67 -8.324,56.25 1.442,10.16 4.289,20.06 7.121,29.92 2.778,9.67 5.563,19.35 8.344,29.03 2.742,9.55 5.52,19.43 4.258,29.29 -2.543,19.85 -20.172,33.76 -36.191,45.76 -17.719,13.27 -36.176,30.79 -36.075,54.69 0.078,18.45 9.633,35.58 21.067,50.06 11.429,14.48 24.992,27.26 35.324,42.55 7.437,11 13.238,23.92 12.031,37.15 -0.75,8.21 -4.16,15.95 -8.09,23.2 -8.441,15.57 -19.582,29.82 -25.398,46.55 -5.828,16.72 -4.996,37.52 8.055,49.48 10.711,9.83 26.636,11.2 41.136,10.24 13.414,-0.89 26.52,-6.94 38.258,-13.47 37.953,-21.1 59.613,-66.05 99.887,-82.29 15.535,-6.26 32.555,-7.64 48.746,-11.92 16.195,-4.28 32.707,-12.55 40.203,-27.52 14.785,-29.53 -12.648,-65.93 -2.262,-97.27 9.196,-27.74 36.157,-38.35 51.293,-63.35 6.621,-10.93 8.145,-23.57 7.078,-36.31 -1.808,-21.56 -4.964,-37.38 -15.312,-61.36 -8.551,-19.82 -33.68,-55.28 -33.68,-55.28 -0.625,-0.63 -182.297,-105.32 -183.898,-106.24" /><path
         id="path46"
         style="fill:#19b19d;fill-opacity:1;fill-rule:nonzero;stroke:none"
         d="m 660.859,1597.84 c -11.222,0 -26.976,9.67 -33.761,14.22 -10,6.71 -18.664,15.4 -25.575,25.28 -2.867,4.11 -5.433,8.42 -7.668,12.88 -6.484,12.95 -9.417,26.57 -9.445,40.61 0,0.06 0,0.12 0,0.18 0,5.1 0.387,10.26 1.121,15.46 1.442,10.16 4.289,20.06 7.121,29.92 2.778,9.67 5.563,19.35 8.344,29.03 2.274,7.91 4.567,16.04 4.57,24.2 0,1.7 -0.097,3.39 -0.312,5.09 -2.543,19.85 -20.172,33.76 -36.191,45.76 -17.684,13.25 -36.106,30.72 -36.075,54.55 0,0.05 0,0.1 0,0.14 0.078,18.45 9.633,35.58 21.067,50.06 11.429,14.48 24.992,27.26 35.324,42.55 6.769,10.01 12.184,21.61 12.191,33.59 0,1.18 -0.05,2.37 -0.16,3.56 -0.75,8.21 -4.16,15.95 -8.09,23.2 -8.441,15.57 -19.582,29.82 -25.398,46.55 -2.211,6.33 -3.461,13.26 -3.453,20.06 0.008,11.15 3.402,21.99 11.508,29.42 8.906,8.17 21.41,10.5 33.707,10.5 2.496,0 4.984,-0.1 7.429,-0.26 13.414,-0.89 26.52,-6.94 38.258,-13.47 37.953,-21.1 59.613,-66.05 99.887,-82.29 15.535,-6.26 32.555,-7.64 48.746,-11.92 16.195,-4.28 32.707,-12.55 40.203,-27.52 3.266,-6.52 4.473,-13.37 4.481,-20.43 0.031,-19.61 -9.176,-40.81 -9.153,-60.86 0.004,-5.43 0.688,-10.77 2.41,-15.98 9.196,-27.74 36.157,-38.35 51.293,-63.35 5.379,-8.88 7.395,-18.89 7.387,-29.17 0,-2.37 -0.109,-4.75 -0.309,-7.14 -1.808,-21.56 -4.964,-37.38 -15.312,-61.36 -8.551,-19.82 -33.68,-55.28 -33.68,-55.28 -0.625,-0.63 -182.297,-105.32 -183.898,-106.24 -1.875,-1.08 -4.113,-1.54 -6.567,-1.54" /><path
         id="path48"
         style="fill:#ffffff;fill-opacity:1;fill-rule:nonzero;stroke:none"
         d="m 775.023,1656.71 h -0.132 c -2.676,0.11 -4.696,2.31 -4.594,4.92 7.808,187.62 -80.594,394.76 -144.883,454.94 -1.898,1.78 -2,4.77 -0.219,6.68 1.793,1.9 4.77,1.99 6.68,0.22 65.582,-61.39 155.781,-271.97 147.871,-462.23 -0.109,-2.55 -2.203,-4.53 -4.723,-4.53" /><path
         id="path50"
         style="fill:#ffffff;fill-opacity:1;fill-rule:nonzero;stroke:none"
         d="m 746.91,1878.37 -1.398,0.21 c -60.278,18.64 -135.41,21.93 -136.157,21.95 -2.613,0.11 -4.632,2.32 -4.531,4.92 0.114,2.61 2.086,4.66 4.922,4.53 0.762,-0.03 77.086,-3.36 138.555,-22.37 2.496,-0.77 3.894,-3.42 3.121,-5.91 -0.625,-2.03 -2.492,-3.33 -4.512,-3.33" /><path
         id="path52"
         style="fill:#26b6a6;fill-opacity:1;fill-rule:nonzero;stroke:none"
         d="m 1479.81,3409.19 -122.29,70.6 c -5.44,3.14 -9.4,3.92 -11.53,2.68 -2.57,-1.5 -12.75,-7.39 -14.9,-8.61 -2.6,-1.48 -2.56,-5.9 0.73,-12.71 l 29.75,-61.59 -22.21,-20.37 c -10.17,-9.34 -8.72,-22.5 3.24,-29.4 l 122.28,-70.61 14.93,8.63 v 121.38" /><path
         id="path54"
         style="fill:#70cec3;fill-opacity:1;fill-rule:nonzero;stroke:none"
         d="m 1464.88,3279.18 -122.28,70.61 c -6.59,3.8 -9.99,9.5 -10.01,15.41 -0.02,4.83 2.21,9.8 6.77,13.99 l 22.21,20.37 -29.75,61.59 c -1.74,3.62 -2.58,6.56 -2.58,8.75 -0.01,1.93 0.63,3.27 1.85,3.96 2.15,1.22 12.33,7.11 14.9,8.61 0.64,0.37 1.44,0.57 2.4,0.57 2.24,0 5.33,-1.05 9.13,-3.25 l 107.36,-61.98 v -138.63" /><path
         id="path56"
         style="fill:#26b6a6;fill-opacity:1;fill-rule:nonzero;stroke:none"
         d="m 1342.6,3471.17 c -11.96,6.9 -16.78,2.42 -10.78,-10.02 l 29.75,-61.59 -22.21,-20.37 c -10.17,-9.34 -8.72,-22.5 3.24,-29.4 l 122.28,-70.61 v 121.39 l -122.28,70.6" /><path
         id="path58"
         style="fill:#dadbd8;fill-opacity:1;fill-rule:nonzero;stroke:none"
         d="m 1479.25,3020.14 c -7.93,0 -14.37,6.44 -14.37,14.38 v 406.2 c 0,7.93 6.44,14.37 14.37,14.37 7.94,0 14.37,-6.44 14.37,-14.37 v -406.2 c 0,-7.94 -6.43,-14.38 -14.37,-14.38" /><path
         id="path60"
         style="fill:#17282f;fill-opacity:1;fill-rule:nonzero;stroke:none"
         d="m 900.512,1591.51 v 25.38 h 6.254 c 7.297,14.77 20.953,28.72 41.105,40.35 63.179,36.48 165.619,36.48 228.799,0 20.15,-11.63 33.81,-25.58 41.1,-40.35 h 6.19 v -24.57 c 0.51,-24.28 -15.2,-48.65 -47.29,-67.17 -63.18,-36.48 -165.62,-36.48 -228.799,0 -31.73,18.32 -47.5,42.35 -47.359,66.36" /><path
         id="path62"
         style="fill:#33535f;fill-opacity:1;fill-rule:nonzero;stroke:none"
         d="m 1176.67,1682.94 c -63.18,36.48 -165.62,36.48 -228.799,0 -63.18,-36.48 -63.18,-95.62 0,-132.1 63.179,-36.48 165.619,-36.48 228.799,0 63.18,36.48 63.18,95.62 0,132.1" /><path
         id="path64"
         style="fill:#273e47;fill-opacity:1;fill-rule:nonzero;stroke:none"
         d="m 1103.94,2873.77 -0.03,-1245.8 c 0,-6.15 -4.07,-12.3 -12.2,-17 -16.26,-9.38 -42.62,-9.38 -58.89,0 -8.12,4.7 -12.19,10.85 -12.19,17 l 0.03,1245.8 h 83.28" /><path
         id="path66"
         style="fill:#17282f;fill-opacity:1;fill-rule:nonzero;stroke:none"
         d="m 1020.63,2768.73 v -81.7 l 83.3,-47.97 0.01,81.49 -83.31,48.18" /><path
         id="path68"
         style="fill:#273e47;fill-opacity:1;fill-rule:nonzero;stroke:none"
         d="m 1375.18,2921.19 154.01,-89 c -0.8,-1.19 -1.9,-2.4 -3,-3.1 l -269.4,-155.5 c -2.3,-1.3 -4.11,-0.3 -4.11,2.41 v 194.09 c 0,33.8 7.81,71.4 22.51,108.8 l 99.99,-57.7" /><path
         id="path70"
         style="fill:#17282f;fill-opacity:1;fill-rule:nonzero;stroke:none"
         d="m 1530.36,3048.71 v -217.2 l -255.14,147.34 0.83,2.13 c 27.36,68.34 73.48,126.3 123.47,155.06 20.5,11.87 39.93,17.87 57.71,17.87 45.1,0 73.13,-40.32 73.13,-105.2" /><path
         id="path72"
         style="fill:#17282f;fill-opacity:1;fill-rule:nonzero;stroke:none"
         d="m 1807.47,2589.04 -0.01,19.4 h -1.85 v -2.77 c -1.13,5.26 -2.79,10.5 -5.05,15.7 -10.19,23.78 -31.64,46.56 -64.4,65.48 l -182.32,105.25 c -7.59,4.38 -19.87,4.38 -27.49,0 L 1247.6,2631.18 c -2.94,2.62 -6.15,5.22 -8.86,9.76 v -19.54 0 0 c 0,-2.88 1.89,-5.75 5.68,-7.93 l 182.33,-105.26 c 48.78,-28.18 112.58,-42.02 174.38,-41.2 53.48,0.7 105.48,12.38 145.09,35.3 40.99,23.56 61.19,54.82 61.19,86.73 h 0.06" /><path
         id="path74"
         style="fill:#33535f;fill-opacity:1;fill-rule:nonzero;stroke:none"
         d="m 1800.56,2621.37 c -10.19,23.78 -31.64,46.56 -64.4,65.48 l -182.32,105.25 c -7.59,4.38 -19.87,4.38 -27.49,0 l -278.75,-160.92 179.15,-103.45 c 48.78,-28.18 112.58,-42.02 174.38,-41.2 53.48,0.73 105.48,12.41 145.09,35.3 36.79,21.17 56.88,48.5 60.6,76.97 -0.93,7.56 -3.02,15.11 -6.26,22.57" /><path
         id="path76"
         style="fill:#273e47;fill-opacity:1;fill-rule:nonzero;stroke:none"
         d="m 1806.82,2598.8 c -0.93,7.56 -3.02,15.11 -6.26,22.57 -10.19,23.78 -31.64,46.56 -64.4,65.48 l -182.32,105.25 c -7.59,4.38 -19.87,4.38 -27.49,0 l -278.75,-160.92 -3.18,1.81 c -7.58,4.38 -7.58,11.49 0,15.87 l 281.93,162.76 c 7.62,4.38 19.9,4.38 27.49,0 l 182.32,-105.25 c 32.76,-18.92 54.21,-41.7 64.4,-65.48 3.43,-7.9 5.59,-15.94 6.44,-23.96 0.67,-6.07 0.61,-12.13 -0.18,-18.13" /><path
         id="path78"
         style="fill:#33535f;fill-opacity:1;fill-rule:nonzero;stroke:none"
         d="m 1250.56,2651.64 281.93,162.76 -6.25,14.73 -269.43,-155.56 -6.25,-21.93" /><path
         id="path80"
         style="fill:#26b6a6;fill-opacity:1;fill-rule:nonzero;stroke:none"
         d="m 1505.51,3061.66 c 0,4.28 -3.01,9.48 -6.71,11.62 l -343.25,198.17 c -3.7,2.14 -9.71,2.14 -13.42,0 l -7.56,-4.36 c -3.71,-2.14 -6.71,-7.34 -6.71,-11.62 v -263.11 c 0,-4.26 3.02,-9.49 6.71,-11.62 l 343.25,-198.17 c 3.69,-2.13 9.73,-2.13 13.41,0 l 7.57,4.36 c 3.69,2.13 6.71,7.37 6.71,11.62 v 263.11" /><path
         id="path82"
         style="fill:#999b9b;fill-opacity:1;fill-rule:nonzero;stroke:none"
         d="m 1133.06,3266.02 c 0.48,0.41 0.99,0.77 1.5,1.07 l 2.78,1.6 -2.77,-1.6 c -0.52,-0.3 -1.02,-0.66 -1.51,-1.07 m 20.11,6.44 c -1.36,0.4 -2.84,0.6 -4.33,0.6 -1.32,0 -2.65,-0.16 -3.88,-0.48 1.23,0.32 2.56,0.48 3.88,0.48 1.49,0 2.98,-0.2 4.33,-0.6" /><path
         id="path84"
         style="fill:#0d171a;fill-opacity:1;fill-rule:nonzero;stroke:none"
         d="m 1503.55,3068.26 c -1.06,1.84 -2.47,3.47 -4.04,4.57 1.58,-1.11 2.99,-2.74 4.04,-4.56 v -0.01" /><path
         id="path86"
         style="fill:#06a088;fill-opacity:1;fill-rule:nonzero;stroke:none"
         d="m 1484.51,3057.28 v 0 l 0.04,0.04 -354.7,204.8 c 0.87,1.49 1.98,2.86 3.21,3.9 0.49,0.41 0.99,0.77 1.51,1.07 l 2.77,1.6 4.81,2.76 c 0.83,0.48 1.79,0.86 2.81,1.13 1.23,0.32 2.56,0.48 3.88,0.48 1.49,0 2.97,-0.2 4.33,-0.6 0.85,-0.26 1.66,-0.6 2.37,-1.01 l 343.25,-198.17 c 0.24,-0.14 0.48,-0.29 0.72,-0.45 1.57,-1.1 2.98,-2.73 4.04,-4.57 l -19.04,-10.98" /><path
         id="path88"
         style="fill:#26b6a6;fill-opacity:1;fill-rule:nonzero;stroke:none"
         d="m 1482.95,2781.12 1.3,-0.1 h -0.4 l -0.9,0.1" /><path
         id="path90"
         style="fill:#c3c5c2;fill-opacity:1;fill-rule:nonzero;stroke:none"
         d="m 1461.68,2791.85 v 0 l 0.02,0.02 v 0 l -0.02,-0.02" /><path
         id="path92"
         style="fill:#1d2f36;fill-opacity:1;fill-rule:nonzero;stroke:none"
         d="m 1461.68,2791.85 -37.42,21.61 v 0.03 l 37.44,-21.62 -0.02,-0.02" /><path
         id="path94"
         style="fill:#1d2f36;fill-opacity:1;fill-rule:nonzero;stroke:none"
         d="m 1478.11,2782.4 -0.26,0.12 -0.3,0.17 0.03,0.01 0.24,-0.13 c 0.09,-0.06 0.19,-0.11 0.29,-0.17" /><path
         id="path96"
         style="fill:#263f48;fill-opacity:1;fill-rule:nonzero;stroke:none"
         d="m 1477.55,2782.69 -15.87,9.16 0.02,0.02 15.88,-9.17 -0.03,-0.01" /><path
         id="path98"
         style="fill:#14b099;fill-opacity:1;fill-rule:nonzero;stroke:none"
         d="m 1480.76,2781.66 c -0.48,0 -0.99,0.08 -1.51,0.26 l -1.14,0.48 c -0.1,0.06 -0.2,0.11 -0.29,0.17 l -0.24,0.13 -15.88,9.17 v 0 l -37.44,21.62 v 61.39 l 58.19,-92.85 c 1.27,0.66 2.06,2.19 2.06,4.41 v 4.38 l -60.25,91.38 v 132.9 c 0,2.13 -0.75,4.5 -1.96,6.6 v 0 c -0.66,1.15 -1.46,2.22 -2.36,3.13 -0.74,0.76 -1.54,1.4 -2.39,1.89 l -0.99,0.57 67.9,29.97 -3.41,-2.04 c 2.1,-0.8 3.5,-2.9 3.5,-5.7 v -263.1 c 0,-2.2 -0.8,-3.7 -2.1,-4.4 -0.51,-0.23 -1.08,-0.36 -1.69,-0.36 m -69.05,248.43 -210.62,121.6 -71.62,109.73 c 0.12,0.24 0.25,0.47 0.38,0.7 v 0 c 0,-0.02 -0.01,-0.03 -0.02,-0.04 l 354.68,-204.8 -0.04,-0.01 -72.76,-27.18" /><path
         id="path100"
         style="fill:#c3c5c2;fill-opacity:1;fill-rule:nonzero;stroke:none"
         d="m 1127.86,3193.97 -0.01,0.01 v 61.44 c 0,0.79 0.1,1.6 0.29,2.42 -0.18,-0.8 -0.28,-1.61 -0.28,-2.37 v -61.5 m 0.28,63.87 v 0.01 -0.01" /><path
         id="path102"
         style="fill:#14b099;fill-opacity:1;fill-rule:nonzero;stroke:none"
         d="m 1196.25,3154.49 -68.39,39.48 v 61.5 c 0,0.76 0.1,1.57 0.28,2.37 0,0 0,0 0,0 v 0.01 c 0.28,1.2 0.73,2.4 1.31,3.54 l 66.8,-106.9" /><path
         id="path104"
         style="fill:#0b7b6a;fill-opacity:1;fill-rule:nonzero;stroke:none"
         d="m 1484.51,3057.28 -354.68,204.8 c 0.01,0.01 0.02,0.02 0.02,0.04 l 354.7,-204.8 -0.05,-0.03" /><path
         id="path106"
         style="fill:#14b099;fill-opacity:1;fill-rule:nonzero;stroke:none"
         d="m 1484.46,3057.26 0.01,0.01 0.04,0.01 -0.05,-0.02" /><path
         id="path108"
         style="fill:#c3c5c2;fill-opacity:1;fill-rule:nonzero;stroke:none"
         d="m 1129.45,3261.39 -0.89,1.42 0.91,-1.38 c -0.01,-0.02 -0.01,-0.03 -0.02,-0.04" /><path
         id="path110"
         style="fill:#14b099;fill-opacity:1;fill-rule:nonzero;stroke:none"
         d="m 1129.45,3261.39 v 0 c 0.01,0.01 0.01,0.02 0.02,0.04 v -0.01 c -0.01,-0.01 -0.01,-0.03 -0.02,-0.03" /><path
         id="path112"
         style="fill:#069c86;fill-opacity:1;fill-rule:nonzero;stroke:none"
         d="m 1482.45,2782.03 -58.19,92.85 v 7.32 l 60.25,-91.38 v -4.38 c 0,-2.22 -0.79,-3.75 -2.06,-4.41 m -65.89,245.26 -4.85,2.8 72.76,27.18 -0.01,-0.01 -67.9,-29.97 m -215.47,124.4 -4.84,2.8 -66.8,106.9 c 0.01,0 0.01,0.02 0.02,0.03 l 71.62,-109.73" /><path
         id="path114"
         style="fill:#26b6a6;fill-opacity:1;fill-rule:nonzero;stroke:none"
         d="m 1424.26,3015.1 c 0,4.27 -3,9.48 -6.71,11.62 l -343.24,198.17 c -3.71,2.14 -9.72,2.14 -13.42,0 l -7.57,-4.36 c -3.7,-2.14 -6.7,-7.35 -6.7,-11.62 V 2945.8 c 0,-4.26 3.01,-9.49 6.7,-11.62 l 343.25,-198.17 c 3.69,-2.13 9.73,-2.13 13.42,0 l 7.56,4.36 c 3.69,2.13 6.71,7.36 6.71,11.62 v 263.11" /><path
         id="path116"
         style="fill:#0b7b6b;fill-opacity:1;fill-rule:nonzero;stroke:none"
         d="m 1422.3,3021.7 c -0.66,1.15 -1.46,2.22 -2.36,3.13 0.9,-0.91 1.7,-1.98 2.36,-3.13 v 0" /><path
         id="path118"
         style="fill:#999b9b;fill-opacity:1;fill-rule:nonzero;stroke:none"
         d="m 1051.8,3219.45 c 0.49,0.41 1,0.78 1.51,1.08 l 2.52,1.44 -2.51,-1.44 c -0.52,-0.31 -1.03,-0.67 -1.52,-1.08 m 17.23,6.98 c -0.47,0.04 -0.95,0.07 -1.43,0.07 -0.27,0 -0.53,-0.01 -0.8,-0.02 0.27,0.01 0.53,0.02 0.8,0.02 0.48,0 0.96,-0.02 1.43,-0.07" /><path
         id="path120"
         style="fill:#06a088;fill-opacity:1;fill-rule:nonzero;stroke:none"
         d="m 1403.26,3010.72 v 0 l 0.04,0.04 -354.7,204.79 c 0.87,1.49 1.97,2.85 3.2,3.9 0.49,0.41 1,0.77 1.52,1.08 l 2.51,1.44 5.07,2.91 c 1.64,0.96 3.75,1.49 5.9,1.6 0.27,0.01 0.53,0.02 0.8,0.02 0.48,0 0.96,-0.03 1.43,-0.07 1.93,-0.17 3.79,-0.69 5.27,-1.55 l 343.24,-198.16 c 0.85,-0.49 1.66,-1.14 2.4,-1.89 0.9,-0.91 1.7,-1.98 2.36,-3.13 l -19.04,-10.98" /><path
         id="path122"
         style="fill:#26b6a6;fill-opacity:1;fill-rule:nonzero;stroke:none"
         d="m 1401.7,2734.55 1.3,-0.09 h -0.4 l -0.9,0.09" /><path
         id="path124"
         style="fill:#c3c5c2;fill-opacity:1;fill-rule:nonzero;stroke:none"
         d="m 1380.73,2745.12 -0.01,0.01 0.03,0.01 0.01,-0.01 -0.03,-0.01 m -334.11,402.29 -0.02,0.01 v 61.44 c 0,0.8 0.11,1.62 0.3,2.45 -0.18,-0.81 -0.28,-1.63 -0.28,-2.4 v -61.5" /><path
         id="path126"
         style="fill:#1d2f36;fill-opacity:1;fill-rule:nonzero;stroke:none"
         d="m 1380.72,2745.13 -37.7,21.76 v 0.04 l 37.73,-21.79 -0.03,-0.01" /><path
         id="path128"
         style="fill:#1d2f36;fill-opacity:1;fill-rule:nonzero;stroke:none"
         d="m 1396.87,2735.84 -0.26,0.11 0.02,0.02 c 0.08,-0.04 0.16,-0.09 0.24,-0.13" /><path
         id="path130"
         style="fill:#263f48;fill-opacity:1;fill-rule:nonzero;stroke:none"
         d="m 1396.61,2735.95 -0.01,0.01 -15.87,9.16 0.03,0.01 15.81,-9.12 c 0.02,-0.02 0.04,-0.03 0.06,-0.04 l -0.02,-0.02" /><path
         id="path132"
         style="fill:#14b099;fill-opacity:1;fill-rule:nonzero;stroke:none"
         d="m 1399.51,2735.1 c -0.48,0 -0.98,0.08 -1.51,0.26 l -1.13,0.48 c -0.08,0.04 -0.16,0.09 -0.24,0.13 -0.02,0.01 -0.04,0.02 -0.06,0.04 l -15.81,9.12 -0.01,0.01 -37.73,21.79 v 61.39 l 58.18,-92.86 c 1.27,0.67 2.06,2.19 2.06,4.42 v 4.38 l -60.24,91.38 v 132.89 c 0,2.14 -0.75,4.51 -1.96,6.61 v 0 c -0.75,1.3 -1.68,2.51 -2.73,3.49 -0.64,0.6 -1.32,1.12 -2.02,1.53 l -1,0.57 67.9,29.97 -3.41,-2.04 c 2.1,-0.8 3.5,-2.9 3.5,-5.7 v -263.1 c 0,-2.21 -0.8,-3.7 -2.09,-4.4 -0.51,-0.23 -1.08,-0.36 -1.7,-0.36 m -69.04,248.43 -210.63,121.6 -71.61,109.73 c 0.12,0.23 0.24,0.46 0.37,0.69 v 0 c 0,-0.01 0,-0.02 -0.01,-0.03 l 354.67,-204.8 -0.03,-0.01 -72.76,-27.18 m -215.47,124.4 -68.38,39.48 v 61.5 c 0,0.77 0.1,1.59 0.28,2.4 0.28,1.19 0.73,2.39 1.31,3.51 L 1115,3107.93" /><path
         id="path134"
         style="fill:#0b7b6a;fill-opacity:1;fill-rule:nonzero;stroke:none"
         d="m 1403.26,3010.72 -354.67,204.8 c 0.01,0.01 0.01,0.02 0.02,0.03 l 354.69,-204.79 -0.05,-0.03" /><path
         id="path136"
         style="fill:#14b099;fill-opacity:1;fill-rule:nonzero;stroke:none"
         d="m 1403.21,3010.7 0.02,0.01 0.03,0.01 -0.05,-0.02" /><path
         id="path138"
         style="fill:#c3c5c2;fill-opacity:1;fill-rule:nonzero;stroke:none"
         d="m 1048.2,3214.83 -0.88,1.42 0.9,-1.39 c 0,-0.01 -0.01,-0.02 -0.02,-0.03" /><path
         id="path140"
         style="fill:#14b099;fill-opacity:1;fill-rule:nonzero;stroke:none"
         d="m 1048.21,3214.82 -0.01,0.01 c 0.01,0.01 0.02,0.02 0.02,0.03 h 0.01 c -0.01,-0.02 -0.02,-0.03 -0.02,-0.04" /><path
         id="path142"
         style="fill:#069c86;fill-opacity:1;fill-rule:nonzero;stroke:none"
         d="m 1401.2,2735.46 -58.18,92.86 v 7.32 l 60.24,-91.38 v -4.38 c 0,-2.23 -0.79,-3.75 -2.06,-4.42 m -65.89,245.27 -4.84,2.8 72.76,27.18 -0.02,-0.01 -67.9,-29.97 m -215.47,124.4 -4.84,2.8 -66.79,106.89 c 0,0.01 0.01,0.02 0.02,0.04 l 71.61,-109.73" /><path
         id="path144"
         style="fill:#26b6a6;fill-opacity:1;fill-rule:nonzero;stroke:none"
         d="m 1343.02,2968.53 c 0,4.28 -3.01,9.48 -6.71,11.63 l -343.244,198.17 c -3.707,2.14 -9.718,2.14 -13.421,0 l -7.567,-4.37 c -3.703,-2.14 -6.707,-7.34 -6.707,-11.62 v -263.11 c 0,-4.26 3.016,-9.49 6.707,-11.61 l 343.252,-198.18 c 3.69,-2.13 9.73,-2.13 13.42,0 l 7.56,4.37 c 3.69,2.13 6.71,7.36 6.71,11.62 v 263.1" /><path
         id="path146"
         style="fill:#0b7b6b;fill-opacity:1;fill-rule:nonzero;stroke:none"
         d="m 1341.06,2975.14 c -0.76,1.3 -1.69,2.51 -2.73,3.49 1.05,-0.98 1.98,-2.19 2.73,-3.49 v 0" /><path
         id="path148"
         style="fill:#999b9b;fill-opacity:1;fill-rule:nonzero;stroke:none"
         d="m 969.922,3172.3 c 0.676,0.66 1.398,1.23 2.148,1.67 l 2.887,1.65 -2.879,-1.66 c -0.754,-0.44 -1.476,-1 -2.156,-1.66" /><path
         id="path150"
         style="fill:#06a088;fill-opacity:1;fill-rule:nonzero;stroke:none"
         d="m 1322.02,2964.16 v 0 l 0.04,0.03 -354.701,204.8 c 0.715,1.23 1.59,2.37 2.563,3.31 0.68,0.66 1.402,1.22 2.156,1.66 l 2.879,1.66 4.699,2.69 c 1.844,1.08 4.27,1.62 6.699,1.62 2.426,0 4.856,-0.54 6.696,-1.62 L 1336.3,2980.16 c 0.71,-0.41 1.39,-0.93 2.03,-1.53 1.04,-0.98 1.97,-2.19 2.73,-3.49 l -19.04,-10.98" /><path
         id="path152"
         style="fill:#26b6a6;fill-opacity:1;fill-rule:nonzero;stroke:none"
         d="m 1320.46,2687.99 1.3,-0.1 h -0.4 l -0.9,0.1" /><path
         id="path154"
         style="fill:#c3c5c2;fill-opacity:1;fill-rule:nonzero;stroke:none"
         d="m 1299.79,2698.38 -0.03,0.02 0.03,0.01 0.02,-0.01 -0.02,-0.02 m -47.11,27.2 -148.75,85.88 v 0.03 l 148.75,-85.88 v -0.03 m -232.02,133.95 -48.601,28.06 c -3.7,2.2 -6.7,7.4 -6.7,11.6 v 263.1 c 0,0.64 0.071,1.3 0.196,1.96 -0.121,-0.65 -0.184,-1.29 -0.184,-1.91 v -263.11 c 0,-4.26 3.016,-9.49 6.707,-11.61 l 48.582,-28.05 v -0.04" /><path
         id="path156"
         style="fill:#1d2f36;fill-opacity:1;fill-rule:nonzero;stroke:none"
         d="m 1103.93,2811.46 -83.27,48.07 v 0.04 l 83.27,-48.08 v -0.03" /><path
         id="path158"
         style="fill:#1d2f36;fill-opacity:1;fill-rule:nonzero;stroke:none"
         d="m 1299.76,2698.4 -47.08,27.18 v 0.03 l 47.11,-27.2 -0.03,-0.01" /><path
         id="path160"
         style="fill:#263f48;fill-opacity:1;fill-rule:nonzero;stroke:none"
         d="m 1315.6,2689.29 -0.24,0.1 -15.57,8.99 0.02,0.02 15.52,-8.96 c 0.08,-0.05 0.17,-0.1 0.27,-0.15" /><path
         id="path162"
         style="fill:#14b099;fill-opacity:1;fill-rule:nonzero;stroke:none"
         d="m 1318.27,2688.54 c -0.48,0 -0.99,0.08 -1.51,0.25 l -1.16,0.5 c -0.1,0.05 -0.19,0.1 -0.27,0.15 l -15.52,8.96 -0.02,0.01 -47.11,27.2 -148.75,85.88 -83.27,48.08 -48.582,28.05 c -3.691,2.12 -6.707,7.35 -6.707,11.61 v 263.11 c 0,0.62 0.063,1.26 0.184,1.91 0.254,1.35 0.754,2.72 1.406,4.01 L 1101.78,2952.5 965.375,2899.12 c 0.031,-2.16 0.824,-4.57 2.094,-6.69 l 134.691,59.46 29.67,-47.47 c 4.86,-7.76 13.25,-12.14 21.92,-12.14 3.5,0 7.04,0.71 10.42,2.21 l 21.12,9.32 134.67,-214.91 c 1.26,0.66 2.06,2.19 2.06,4.41 v 4.38 l -136.07,206.41 136.02,60.04 -3.41,-2.05 c 2.1,-0.8 3.5,-2.9 3.5,-5.7 V 2693.3 c 0,-2.21 -0.8,-3.71 -2.1,-4.41 -0.51,-0.22 -1.08,-0.35 -1.69,-0.35" /><path
         id="path164"
         style="fill:#c3c5c2;fill-opacity:1;fill-rule:nonzero;stroke:none"
         d="m 967.285,3168.87 c 0.024,0.04 0.051,0.08 0.074,0.12 v 0 c -0.023,-0.04 -0.05,-0.08 -0.074,-0.12" /><path
         id="path166"
         style="fill:#14b099;fill-opacity:1;fill-rule:nonzero;stroke:none"
         d="m 1154.04,2903.14 c -8.54,0 -16.76,4.24 -21.64,11.73 l -25.53,39.1 -139.89,214.32 c 0.098,0.19 0.2,0.39 0.305,0.58 0.024,0.04 0.051,0.08 0.074,0.12 v 0 c -0.004,-0.01 -0.007,-0.03 -0.015,-0.04 l 354.676,-204.79 -0.04,-0.01 -158.92,-59.38 c -2.96,-1.1 -6.01,-1.63 -9.02,-1.63" /><path
         id="path168"
         style="fill:#0b7b6a;fill-opacity:1;fill-rule:nonzero;stroke:none"
         d="m 1322.02,2964.16 -354.676,204.79 c 0.008,0.01 0.011,0.03 0.019,0.04 l 354.697,-204.8 -0.05,-0.03" /><path
         id="path170"
         style="fill:#14b099;fill-opacity:1;fill-rule:nonzero;stroke:none"
         d="m 1321.97,2964.14 0.01,0.01 0.04,0.01 -0.05,-0.02" /><path
         id="path172"
         style="fill:#c3c5c2;fill-opacity:1;fill-rule:nonzero;stroke:none"
         d="m 966.961,3168.27 -0.887,1.41 0.903,-1.38 c -0.004,-0.01 -0.012,-0.03 -0.016,-0.03" /><path
         id="path174"
         style="fill:#14b099;fill-opacity:1;fill-rule:nonzero;stroke:none"
         d="m 966.961,3168.26 v 0.01 c 0.004,0 0.012,0.02 0.016,0.03 l 0.003,-0.01 c -0.007,-0.01 -0.011,-0.02 -0.019,-0.03" /><path
         id="path176"
         style="fill:#069c86;fill-opacity:1;fill-rule:nonzero;stroke:none"
         d="m 1319.96,2688.9 -134.67,214.91 -21.12,-9.32 c -3.38,-1.5 -6.92,-2.21 -10.42,-2.21 -8.67,0 -17.06,4.38 -21.92,12.14 l -29.67,47.47 -134.691,-59.46 c -1.27,2.12 -2.063,4.53 -2.094,6.69 l 136.405,53.38 -134.819,215.76 c 0.008,0.01 0.012,0.02 0.019,0.03 l 139.89,-214.32 25.53,-39.1 c 4.88,-7.49 13.1,-11.73 21.64,-11.73 3.01,0 6.06,0.53 9.02,1.63 l 158.92,59.38 -0.01,-0.01 -136.02,-60.04 136.07,-206.41 v -4.38 c 0,-2.22 -0.8,-3.75 -2.06,-4.41" /><path
         id="path178"
         style="fill:#33535f;fill-opacity:1;fill-rule:nonzero;stroke:none"
         d="m 1494.69,3160.89 c -27.3,14.31 -63.5,11.81 -103.1,-11.1 -44.5,-25.6 -84.6,-71.9 -112.7,-125.1 -6.6,-12.3 -12.4,-25 -17.6,-37.8 -15.5,-38.6 -24.5,-79 -24.5,-116.8 v -221.8 c -5,0 -9.9,1.2 -13.7,3.3 l -488.301,282.4 c -7.5,4.4 -13.699,15.1 -13.699,23.8 v 210.6 c 0,105.2 69.301,230.4 154.695,279.8 40.504,23.4 77.301,25.31 104.903,9.8 l 0.097,0.2 513.905,-297.3" /><path
         id="path180"
         style="fill:#273e47;fill-opacity:1;fill-rule:nonzero;stroke:none"
         d="m 1261.29,2986.89 c -15.5,-38.6 -24.5,-79 -24.5,-116.8 v -221.8 c -1.7,0 -3.4,0.2 -5,0.5 -0.1,12.8 -0.2,84 -0.2,221.3 0,163.2 125.5,266.9 160,279.7 -44.5,-25.6 -84.6,-71.9 -112.7,-125.1 -6.6,-12.3 -12.4,-25 -17.6,-37.8" /><path
         id="path182"
         style="fill:#33535f;fill-opacity:1;fill-rule:nonzero;stroke:none"
         d="m 1256.81,2673.57 c -2.27,-1.32 -4.12,-0.25 -4.12,2.38 v 194.13 c 0,33.83 7.81,71.38 22.53,108.77 l 0.83,2.13 c 5.52,13.81 11.81,27.17 18.79,39.96 27.36,50.6 64.78,92.15 104.68,115.1 20.5,11.86 39.93,17.87 57.71,17.87 11.23,0 21.42,-2.52 30.37,-7.27 26.98,-14.38 42.76,-49.23 42.76,-97.93 v -212.44 c 0,-2.63 -1.85,-5.83 -4.12,-7.14 l 6.25,-14.73 1.39,0.89 c 2.06,1.43 4,3.34 5.68,5.49 l 0.03,0.07 c 4,5.04 6.64,11.61 6.64,17.36 v 210.5 c 0,56.35 -19.9,95.55 -51.52,112.15 -27.36,14.34 -63.48,11.84 -103.12,-11.08 -44.47,-25.59 -84.56,-71.86 -112.75,-125.09 -6.51,-12.29 -12.38,-24.95 -17.52,-37.81 -15.49,-38.6 -24.5,-78.97 -24.5,-116.8 v -221.75 l 2.38,0.1 c 4.15,0.28 8.19,1.36 11.36,3.2 l 6.25,21.94" /><path
         id="path184"
         style="fill:#273e47;fill-opacity:1;fill-rule:nonzero;stroke:none"
         d="m 4455.77,1794.75 h -688.28 l 60.23,-607.8 h 0.04 c 3.72,-38.93 31.3,-77.23 82.81,-106.97 111.04,-64.11 291.08,-64.11 402.13,-0.01 51.51,29.75 79.08,68.05 82.8,106.98 h 0.04 l 60.23,607.8" /><path
         id="path186"
         style="fill:#33535f;fill-opacity:1;fill-rule:nonzero;stroke:none"
         d="m 3867.91,1665.11 c 134.61,-77.71 352.84,-77.71 487.44,0 134.61,77.71 134.61,203.71 0,281.43 -134.6,77.71 -352.84,77.71 -487.44,0 -134.61,-77.72 -134.61,-203.71 0,-281.43" /><path
         id="path188"
         style="fill:#273e47;fill-opacity:1;fill-rule:nonzero;stroke:none"
         d="m 4111.63,1635.17 c -87.17,0 -168.69,19.36 -229.55,54.49 -55.96,32.31 -86.78,73.57 -86.78,116.16 0,42.6 30.82,83.86 86.78,116.17 60.86,35.13 142.38,54.49 229.55,54.49 87.17,0 168.69,-19.36 229.55,-54.49 55.96,-32.31 86.78,-73.57 86.78,-116.17 0,-42.59 -30.82,-83.85 -86.78,-116.16 -60.86,-35.13 -142.38,-54.49 -229.55,-54.49" /><path
         id="path190"
         style="fill:#2c4954;fill-opacity:1;fill-rule:nonzero;stroke:none"
         d="m 4341.18,1689.66 v 0 c 0.06,0.04 0.13,0.07 0.19,0.11 -0.07,-0.04 -0.13,-0.07 -0.19,-0.11 m -458.65,232.58 c 0.03,0.02 0.06,0.04 0.09,0.06 -0.03,-0.02 -0.06,-0.04 -0.09,-0.06 m 0.52,0.3 c 0,0.01 0,0.01 0.01,0.01 -0.01,0 -0.01,0 -0.01,-0.01" /><path
         id="path192"
         style="fill:#21363e;fill-opacity:1;fill-rule:nonzero;stroke:none"
         d="m 4341.18,1689.66 c 0.07,0.04 0.13,0.08 0.2,0.12 -0.01,-0.01 -0.01,-0.01 -0.01,-0.01 -0.06,-0.04 -0.13,-0.07 -0.19,-0.11 m -459.1,0 c -0.11,0.07 -0.22,0.13 -0.34,0.2 0.12,-0.07 0.23,-0.13 0.34,-0.2 m -0.45,0.26 c -0.08,0.05 -0.16,0.09 -0.24,0.14 0.08,-0.05 0.16,-0.09 0.24,-0.14 m -0.3,0.18 c -0.09,0.05 -0.19,0.11 -0.28,0.16 0.09,-0.05 0.19,-0.11 0.28,-0.16 m -0.32,0.18 c -0.1,0.06 -0.21,0.13 -0.31,0.19 0.1,-0.06 0.2,-0.13 0.31,-0.19 m -0.33,0.2 c -55.07,32.18 -85.38,73.1 -85.38,115.34 0,42.6 30.82,83.86 86.78,116.17 0.15,0.08 0.3,0.17 0.45,0.25 0.03,0.02 0.06,0.04 0.09,0.06 0.15,0.08 0.29,0.16 0.43,0.24 0,0.01 0,0.01 0.01,0.01 41.37,23.68 92.29,39.9 147.87,47.98 -16.41,-4.83 -32.7,-10.08 -48.71,-16.1 -34.18,-12.84 -70.71,-31.91 -82.27,-66.54 -4.6,-13.77 -3.35,-31.48 8.75,-39.49 21.36,17.48 45.54,35.9 72.74,35.9 1.45,0 2.91,-0.05 4.37,-0.16 4.44,-0.32 9.29,-1.43 11.89,-5.03 2.1,-2.92 2.39,-7.02 5.07,-9.4 2.95,-2.62 7.43,-2.07 11.23,-3.06 7.68,-2.02 10.78,-8.93 12.99,-16.96 -14.5,5.9 -28.48,15.21 -43,15.21 -2.74,0 -5.49,-0.33 -8.27,-1.07 -8.63,-2.32 -15.68,-8.41 -22.4,-14.31 -11.11,-9.77 -22.23,-19.55 -33.34,-29.32 -7.54,-6.63 -15.43,-13.79 -18.24,-23.42 -1.17,-4.01 -1.44,-8.38 -3.63,-11.94 -3.5,-5.67 -9.1,-6.9 -15.05,-6.9 -2.29,0 -4.62,0.18 -6.91,0.36 -2.29,0.19 -4.53,0.37 -6.61,0.37 -0.16,0 -0.32,0 -0.48,0 -14.69,-0.21 -25.07,-2 -37,-11.29 -7.38,-5.76 -13.11,-12.43 -16.96,-19.75 v 0 0 c 14.45,-20.76 36.53,-40.18 65.58,-57.15 m 451.44,72.57 c -0.52,0 -1.05,0.01 -1.57,0.03 -7.06,0.3 -14.86,3.82 -16.94,10.4 12.05,-1.19 25.29,-0.98 34.61,-7.97 0.46,-0.35 0.9,-0.7 1.33,-1.07 -2.75,-0.06 -5.49,-0.38 -8.24,-0.69 -3.06,-0.35 -6.12,-0.7 -9.19,-0.7 m -72.57,22.74 c -6.6,0 -13.16,2.41 -16.01,7.97 2.25,1.15 4.51,2.43 6.77,3.71 7.02,3.99 14,7.97 20.29,7.97 2.92,0 5.7,-0.85 8.26,-2.97 2.76,-2.28 4.28,-5.5 5.64,-8.86 -6.1,-2.21 -11.93,-5.37 -18.24,-6.99 -2.14,-0.54 -4.43,-0.83 -6.71,-0.83 m -184.97,28.57 c -0.08,0 -0.17,0 -0.25,0 -0.41,7.76 -3.94,15.23 -9.42,20.72 0.14,0.16 0.28,0.31 0.42,0.47 2.36,2.63 4.7,5.26 7.05,7.88 13.71,15.33 30.44,31.94 50.58,31.94 0.44,0 0.87,-0.01 1.3,-0.02 -10.71,-8.1 -14.89,-22.23 -20.25,-34.69 -5.51,-12.82 -15.52,-26.3 -29.43,-26.3" /><path
         id="path194"
         style="fill:#17282f;fill-opacity:1;fill-rule:nonzero;stroke:none"
         d="m 3949.61,1124.2 c -15.47,5.97 -30.17,12.92 -43.8,20.8 -5.16,2.97 -10.07,6.03 -14.76,9.17 -7.95,5.36 -14.97,21.39 -16.12,35.15 l -34.14,408.77 c -1.14,13.76 5.08,19.15 14.45,12.84 5.51,-3.71 11.3,-7.33 17.38,-10.83 16.91,-9.78 35.15,-18.28 54.43,-25.52 12.93,-4.85 24.22,-19.26 24.91,-33.05 l 20,-400.56 c 0.7,-13.79 -9.47,-21.75 -22.35,-16.77" /><path
         id="path196"
         style="fill:#17282f;fill-opacity:1;fill-rule:nonzero;stroke:none"
         d="m 4164.69,1520.51 -6.85,-397.61 c -0.23,-13.81 -11.57,-26.09 -25.37,-26.67 -13.88,-0.57 -27.81,-0.57 -41.71,0 -13.8,0.58 -25.13,12.86 -25.35,26.67 l -6.48,397.61 c -0.23,13.8 10.73,23.86 24.52,23.16 18.87,-0.96 37.85,-0.96 56.73,0 13.78,0.7 24.74,-9.36 24.51,-23.16" /><path
         id="path198"
         style="fill:#17282f;fill-opacity:1;fill-rule:nonzero;stroke:none"
         d="m 4382.91,1598.49 -34.49,-409.17 c -1.16,-13.76 -8.2,-29.81 -16.19,-35.17 -4.69,-3.14 -9.62,-6.19 -14.82,-9.15 -13.69,-7.88 -28.41,-14.83 -43.88,-20.8 -12.89,-4.98 -23.04,2.98 -22.35,16.77 l 20.36,400.66 c 0.71,13.79 12,28.22 24.92,33.08 19.18,7.22 37.33,15.69 54.15,25.39 6.18,3.55 12.07,7.21 17.65,10.98 9.52,6.42 15.81,1.17 14.65,-12.59" /><path
         id="path200"
         style="fill:#26b6a6;fill-opacity:1;fill-rule:nonzero;stroke:none"
         d="m 3815.1,1747.63 c 14.68,-21.09 37.24,-40.8 66.98,-57.97 60.86,-35.13 142.38,-54.49 229.55,-54.49 87.17,0 168.69,19.36 229.55,54.49 19.37,11.18 35.64,23.44 48.74,36.45 -1.23,5.96 -3.13,11.75 -6.12,17.06 -6.4,11.37 -17.98,20.36 -31.01,21.21 -3.83,0.25 -7.65,-0.19 -11.48,-0.63 -3.58,-0.41 -7.17,-0.82 -10.76,-0.67 -7.43,0.32 -15.71,4.21 -17.23,11.49 -0.69,3.32 0.14,6.8 -0.51,10.13 -1.69,8.74 -12.68,12.46 -21.43,10.85 -8.76,-1.62 -16.5,-6.71 -25.12,-8.93 -8.62,-2.21 -19.68,-0.21 -23.12,8 -1.74,4.18 -1.14,9.18 -3.46,13.07 -4.89,8.16 -19.02,6.31 -23.72,14.56 -3.67,6.45 0.89,14.25 1.98,21.58 1.81,12.19 -6.83,24 -17.67,29.85 -10.85,5.84 -23.51,7.01 -35.79,8.07 -13.37,1.16 -27.96,2.02 -39.04,-5.56 -11.59,-7.93 -15.88,-22.63 -21.43,-35.53 -5.54,-12.9 -15.64,-26.47 -29.68,-26.3 -0.61,11.62 -8.22,22.59 -18.89,27.22 -6.21,2.69 -13.1,3.31 -19.64,5.08 -20.49,5.57 -39.57,22.66 -60.08,17.17 -8.63,-2.32 -15.68,-8.41 -22.4,-14.31 -11.11,-9.77 -22.23,-19.55 -33.34,-29.32 -7.54,-6.63 -15.43,-13.79 -18.24,-23.42 -1.17,-4.01 -1.44,-8.38 -3.63,-11.94 -4.85,-7.85 -13.73,-7.19 -21.96,-6.54 -2.47,0.2 -4.87,0.4 -7.09,0.37 -14.69,-0.21 -25.07,-2 -37,-11.29 -7.38,-5.76 -13.11,-12.43 -16.96,-19.75" /><path
         id="path202"
         style="fill:#1db3a0;fill-opacity:1;fill-rule:nonzero;stroke:none"
         d="m 4111.63,1635.17 c -87.17,0 -168.69,19.36 -229.55,54.49 -29.74,17.17 -52.3,36.88 -66.98,57.97 3.85,7.32 9.58,13.99 16.96,19.75 11.93,9.29 22.31,11.08 37,11.29 0.16,0 0.32,0 0.48,0 2.08,0 4.32,-0.18 6.61,-0.37 2.29,-0.18 4.62,-0.36 6.91,-0.36 5.95,0 11.55,1.23 15.05,6.9 2.19,3.56 2.46,7.93 3.63,11.94 2.81,9.63 10.7,16.79 18.24,23.42 7.64,6.71 15.26,13.42 22.9,20.13 -0.73,-5.66 0.23,-11.35 3.74,-15.92 2.06,-2.69 4.88,-4.95 5.9,-8.18 2.18,-6.96 -4.99,-13.38 -5.87,-20.62 -0.62,-5.16 2.02,-10.22 1.82,-15.41 -0.48,-12.49 -15.41,-18.15 -27.41,-21.7 -11.98,-3.54 -26.28,-12.64 -22.88,-24.67 1.74,0.18 3.45,0.27 5.14,0.27 36.12,0 62.06,-39.88 97.3,-52.14 7.3,17.71 22.66,33.29 41.67,35.5 1.67,0.2 3.33,0.29 4.98,0.29 13.9,0 27.33,-6.44 39.95,-12.73 3.93,-1.96 8.05,-4.08 10.5,-7.74 3.14,-4.67 3.06,-11.2 6.99,-15.25 2.06,-2.12 4.93,-3.21 7.7,-4.25 7.22,-2.69 14.94,-5.4 22.49,-5.4 2.78,0 5.54,0.37 8.23,1.24 9.18,2.96 15.64,11.12 24.01,15.93 7.48,4.3 15.64,5.62 24.14,5.62 6.72,0 13.65,-0.83 20.63,-1.65 6.98,-0.83 14.01,-1.65 20.91,-1.65 4.56,0 9.07,0.36 13.48,1.32 1.68,0.36 3.51,0.95 4.35,2.44 0.68,1.2 0.52,2.68 0.54,4.05 0.14,10.39 11.28,17.65 21.66,18.18 0.61,0.03 1.22,0.05 1.83,0.05 9.72,0 19.1,-3.77 28.61,-6.06 7.09,-1.71 14.36,-2.53 21.63,-2.53 22.87,0 45.78,8.19 63.34,22.87 0.61,-2.01 1.23,-4.01 1.66,-6.08 -13.1,-13.01 -29.37,-25.27 -48.74,-36.45 -60.86,-35.13 -142.38,-54.49 -229.55,-54.49" /><path
         id="path204"
         style="fill:#26b6a6;fill-opacity:1;fill-rule:nonzero;stroke:none"
         d="m 3841.46,2470.14 c 0,4.04 -2.83,8.96 -6.32,10.98 l -324.19,187.17 c -3.51,2.02 -9.18,2.02 -12.68,0 l -7.15,-4.13 c -3.49,-2.02 -6.33,-6.93 -6.33,-10.97 v -248.5 c 0,-4.02 2.85,-8.96 6.33,-10.98 l 324.19,-187.17 c 3.49,-2.01 9.19,-2.01 12.68,0 l 7.14,4.13 c 3.48,2.01 6.33,6.95 6.33,10.97 v 248.5" /><path
         id="path206"
         style="fill:#f9f9f8;fill-opacity:1;fill-rule:nonzero;stroke:none"
         d="m 3839.62,2476.38 c -0.56,0.96 -1.22,1.86 -1.94,2.65 0.73,-0.79 1.38,-1.69 1.94,-2.65 v 0" /><path
         id="path208"
         style="fill:#ffffff;fill-opacity:1;fill-rule:nonzero;stroke:none"
         d="m 3489.67,2663.13 c 0.46,0.4 0.95,0.75 1.44,1.04 l 2.31,1.32 -2.3,-1.33 c -0.5,-0.28 -0.98,-0.63 -1.45,-1.03 m 18.33,6.29 c -1.09,0.25 -2.24,0.38 -3.4,0.38 -0.93,0 -1.86,-0.08 -2.75,-0.25 0.89,0.17 1.82,0.26 2.76,0.26 1.15,0 2.3,-0.13 3.39,-0.39" /><path
         id="path210"
         style="fill:#5cc8bc;fill-opacity:1;fill-rule:nonzero;stroke:none"
         d="m 3821.63,2466.01 -334.98,193.42 c 0.82,1.42 1.86,2.71 3.02,3.7 0.47,0.4 0.95,0.75 1.45,1.03 l 2.3,1.33 4.86,2.79 c 1.03,0.6 2.26,1.03 3.57,1.27 0.89,0.17 1.82,0.25 2.75,0.25 1.16,0 2.31,-0.13 3.4,-0.38 1.07,-0.26 2.07,-0.64 2.94,-1.14 l 324.19,-187.16 c 0.91,-0.53 1.77,-1.24 2.55,-2.09 0.72,-0.79 1.38,-1.69 1.94,-2.65 l -17.99,-10.37" /><path
         id="path212"
         style="fill:#babcba;fill-opacity:1;fill-rule:nonzero;stroke:none"
         d="m 3837.43,2212.5 c 2.36,2.43 4.03,6.06 4.03,9.14 v 248.5 c 0,2.02 -0.7,4.25 -1.84,6.24 v 0 c 1.14,-1.98 1.85,-4.22 1.85,-6.23 v -248.5 c 0,-3.1 -1.67,-6.73 -4.04,-9.15" /><path
         id="path214"
         style="fill:#14b099;fill-opacity:1;fill-rule:nonzero;stroke:none"
         d="m 3821.68,2205.04 c -1.03,0 -2.06,0.1 -3.05,0.31 l -1.23,0.32 -0.74,0.31 c 0.54,-0.2 1.05,-0.29 1.53,-0.29 0.55,0 1.05,0.12 1.5,0.34 v 0 c 1.19,0.63 1.94,2.07 1.94,4.17 v 4.14 244.36 c 0,2.6 -1.32,4.58 -3.29,5.39 l 3.29,1.92 17.99,10.37 c 1.14,-1.99 1.84,-4.22 1.84,-6.24 v -248.5 c 0,-3.08 -1.67,-6.71 -4.03,-9.14 -0.71,-0.73 -1.49,-1.35 -2.3,-1.82 l -7.14,-4.14 v 0 l -1.74,-0.78 c -0.81,-0.27 -1.68,-0.47 -2.61,-0.6 -0.64,-0.08 -1.3,-0.12 -1.96,-0.12" /><path
         id="path216"
         style="fill:#c3c5c2;fill-opacity:1;fill-rule:nonzero;stroke:none"
         d="m 3486.29,2658.78 -0.84,1.34 0.85,-1.31 c 0,-0.01 -0.01,-0.02 -0.01,-0.03" /><path
         id="path218"
         style="fill:#14b099;fill-opacity:1;fill-rule:nonzero;stroke:none"
         d="m 3819.69,2206.03 -127.19,202.98 -19.95,-8.81 c -3.19,-1.41 -6.54,-2.08 -9.84,-2.08 -8.19,0 -16.12,4.14 -20.71,11.47 l -28.02,44.84 -127.21,-56.17 c -1.2,2.01 -1.95,4.28 -1.98,6.32 l 128.83,50.42 -127.33,203.78 c 0,0.01 0.01,0.02 0.01,0.03 l 132.13,-202.42 24.11,-36.94 c 4.61,-7.06 12.38,-11.07 20.44,-11.07 2.84,0 5.72,0.5 8.51,1.54 l 150.14,56.09 -128.52,-56.72 128.52,-194.95 v -4.14 c 0,-2.1 -0.75,-3.54 -1.94,-4.17 v 0" /><path
         id="path220"
         style="fill:#f6879f;fill-opacity:1;fill-rule:nonzero;stroke:none"
         d="m 3544.89,2942.54 -148.65,268.38 c 0,0 -165.32,206.35 -100.56,292 88.19,8.06 166.15,-7.3 240.35,-149.7 82.88,-159.07 122.34,-274.29 165.43,-378.01 11.92,-28.66 10.71,-169.88 7.9,-276.85 -1.83,-69.69 2.41,-145.94 2.41,-145.94 l -56.01,32.33 c -12.82,7.4 -27.32,11.37 -42.12,11.53 l -13.98,0.15 c 0,0 -24.03,-24.63 -29.97,-51.34 -8.98,-40.29 -30.89,-52.33 -42.66,-42.94 -5.72,4.56 -9.72,28.13 3.34,84.13 10.74,46.03 52.7,91.08 47.19,126.21 l -32.67,230.05" /><path
         id="path222"
         style="fill:#273e47;fill-opacity:1;fill-rule:nonzero;stroke:none"
         d="m 3295.68,3502.92 c 0,0 56.18,12.59 98.34,-1.62 42.17,-14.21 71.83,-30.7 116.97,-97.9 45.13,-67.2 145.07,-301.74 145.07,-301.74 0,0 -12.15,-64.64 -159.86,-87.86 l -147.38,237.29 -53.14,251.83" /><path
         id="path224"
         style="fill:#f6879f;fill-opacity:1;fill-rule:nonzero;stroke:none"
         d="m 3065.19,3577.76 29.69,-187.37 185.76,9.91 -26.65,217.77 -188.8,-40.31" /><path
         id="path226"
         style="fill:#f47089;fill-opacity:1;fill-rule:nonzero;stroke:none"
         d="m 2940.23,3807.68 c 0,0 -44.27,-67.19 -39.22,-73.79 5.03,-6.6 37.62,-12.56 37.62,-12.56 l 1.6,86.35" /><path
         id="path228"
         style="fill:#f6879f;fill-opacity:1;fill-rule:nonzero;stroke:none"
         d="m 3063.19,3993.55 c -89.61,-18.9 -115.48,-58.29 -123.91,-200.64 -8.83,-148.74 6.35,-195.49 25.9,-215.52 13.19,-13.51 86.48,-15.96 123.46,-5.76 46.29,12.76 150.87,49.82 199.87,124.64 57.61,88.03 72.75,207.32 11.06,256.26 -86.82,68.88 -199.91,48.71 -236.38,41.02" /><path
         id="path230"
         style="fill:#f47089;fill-opacity:1;fill-rule:nonzero;stroke:none"
         d="m 3066.82,3567.48 c 0,0 25.06,4.42 47.19,11.91 0,0 -12.97,-17.58 -44.98,-25.93 l -2.21,14.02" /><path
         id="path232"
         style="fill:#17282f;fill-opacity:1;fill-rule:nonzero;stroke:none"
         d="m 2921.17,3938.56 c 6.67,-7.07 14.69,-12.81 22.87,-18.11 11.99,-7.75 24.51,-14.7 37.43,-20.78 12.14,-5.7 25.42,-9.2 36.38,-17.02 16.26,-11.6 18.35,-26.97 18.78,-45.65 0.27,-12.23 0.23,-27.4 0.42,-43.85 0.27,-24.69 16.04,-43.47 23.73,-10.38 0,0 14.16,54.98 60.5,48.07 46.65,-6.96 50.42,-59.13 28.32,-100.11 -13.45,-24.93 -49.44,-18.41 -49.44,-18.41 0,0 -8.17,-68.53 48.38,-124.66 0,0 35.74,-10.84 108.61,4.69 44.78,9.56 87.77,58.86 114.4,118.15 56.33,125.41 60.27,238.27 -19.8,272.09 -8.66,57.79 -54.16,83.7 -106.04,95.62 -77.59,17.83 -150.12,-28.23 -226.84,-11.05 -12.47,2.79 -25.37,5.79 -37.42,9.82 -4.94,1.65 -10.46,3.27 -15.15,1.04 -5.96,-2.84 -7.69,-10.57 -7.25,-17.14 0.99,-14.81 9.73,-28.88 22.55,-36.33 -1.57,0.91 -9.01,-1.13 -11.08,-1.26 -4.3,-0.28 -8.62,-0.35 -12.91,-0.45 -8.32,-0.21 -16.85,1.03 -25.2,1.79 -5.81,0.53 -11.79,1.04 -17.39,-0.58 -12.86,-3.74 -20.25,-18.22 -19.86,-31.61 0.38,-13.39 6.83,-25.8 13.82,-37.23 2.84,-4.62 5.79,-9.18 9.25,-13.33 0.95,-1.15 1.93,-2.25 2.94,-3.32" /><path
         id="path234"
         style="fill:#17282f;fill-opacity:1;fill-rule:nonzero;stroke:none"
         d="m 3353.12,3963.25 53.63,31.61 c -8.72,14.8 -27.8,19.73 -42.62,11 -14.8,-8.73 -19.73,-27.81 -11.01,-42.61" /><path
         id="path236"
         style="fill:#17282f;fill-opacity:1;fill-rule:nonzero;stroke:none"
         d="m 3403.17,1180.36 c 0.4,-4.02 0.79,-8.04 1.19,-12.05 1.56,-15.88 3.12,-31.91 1.22,-47.76 -1.32,-11.01 -4.51,-25.9 -14.72,-31.93 -10.44,-6.16 -23.21,-10.86 -34.99,-13.69 -26.79,-6.46 -56.21,-4.15 -81.11,7.94 -21.06,10.24 -37.53,26.24 -60.38,32.63 -23.35,6.53 -47.57,9.08 -71.6,11.81 -10.67,1.21 -21.43,2.48 -31.66,5.8 -7.93,2.58 -15.41,6.36 -22.78,10.24 -24.84,13.1 -49.37,28.05 -67.65,49.37 -11.78,13.74 -20.69,30.4 -24.18,48.25 -2.07,10.57 -6.36,41 11.23,40.21 86.2,-3.87 171.54,-22.34 257.81,-21.33 5.59,0.07 11.23,0.21 16.75,-0.69 10.73,-1.74 20.24,-7.31 28.95,-13.54 10.18,-7.29 13.86,-7.52 26.45,-6.47 15.08,1.26 29.83,3.21 44.73,-0.66 6.23,-1.62 12.99,-4.46 15.42,-10.43 0.83,-2.06 1.07,-4.31 1.28,-6.53 1.35,-13.72 2.7,-27.45 4.04,-41.17" /><path
         id="path238"
         style="fill:#f6879f;fill-opacity:1;fill-rule:nonzero;stroke:none"
         d="m 3394.35,1283.62 -4.46,-64.99 c -4.19,-24.74 -88.49,-39.87 -105.86,3.9 l -8.25,73.67 118.57,-12.58" /><path
         id="path240"
         style="fill:#17282f;fill-opacity:1;fill-rule:nonzero;stroke:none"
         d="m 3073.55,1026.64 c 0,0 10.32,-33.808 15.63,-63.288 4.21,-23.43 10.14,-62.582 1.56,-79.942 -8.56,-17.359 -40.68,-27.969 -90.08,-26.48 -31.99,0.961 -82.34,-19.641 -116.92,-37.93 -35.7,-18.879 -109.22,-25.07 -146.42,-19.852 -43.83,6.161 -88.79,32.672 -95.49,51.032 -6.69,18.359 3.17,37.05 107.75,78.859 0.96,0.391 145.06,43.68 196.43,97.871 l 127.54,-0.27" /><path
         id="path242"
         style="fill:#f6879f;fill-opacity:1;fill-rule:nonzero;stroke:none"
         d="m 3074.49,1068.36 c 0,0 -0.79,-28.63 -1,-45.01 -0.24,-16.36 -20.11,-40.311 -70.1,-37.401 -35.11,2.051 -59.43,12.051 -57.38,40.961 l 0.93,41.71 127.55,-0.26" /><path
         id="path244"
         style="fill:#26b6a6;fill-opacity:1;fill-rule:nonzero;stroke:none"
         d="m 3428.34,1782.59 c -14.82,126.48 -25.91,198.96 -25.91,198.96 0,0 2.55,176.12 12.87,340.36 11.13,177.41 8.64,400.79 13.02,445.01 0,0 -569.94,121.74 -574.57,-83.79 -5.37,-238.81 10.53,-732.9 13.91,-797.21 4.74,-90.33 4.94,-184.26 20.28,-330.84 15.14,-144.66 59,-486.46 59,-486.46 64.66,-36.86 127.55,-0.26 127.55,-0.26 0,0 49.57,409.52 47.69,513.67 -2.31,127.17 -21.63,225.15 -21.63,225.15 l 44.91,463.58 c 0,0 17.61,-143.33 22.34,-233.66 4.75,-90.33 17.15,-145.45 39.46,-313.53 19.36,-145.81 68.52,-453.58 68.52,-453.58 64.66,-36.87 121.2,4.85 121.2,4.85 0,0 46.19,381.27 31.36,507.75" /><path
         id="path246"
         style="fill:#29444e;fill-opacity:1;fill-rule:nonzero;stroke:none"
         d="m 3165.94,2064.86 c -2.12,29.41 -4.77,60.07 -7.88,91.82 2.96,-29.62 5.85,-61.34 7.91,-90.25 l -0.03,-1.57" /><path
         id="path248"
         style="fill:#c7c9c7;fill-opacity:1;fill-rule:nonzero;stroke:none"
         d="m 3145.98,2266.49 c -0.18,1.42 -0.35,2.84 -0.52,4.27 0.01,-0.11 0.19,-1.59 0.52,-4.27" /><path
         id="path250"
         style="fill:#19b19d;fill-opacity:1;fill-rule:nonzero;stroke:none"
         d="m 3165.97,2066.43 c -2.06,28.91 -4.95,60.63 -7.91,90.25 -3.47,35.34 -7.52,72.03 -12.08,109.81 -0.33,2.68 -0.51,4.16 -0.52,4.26 0,0.01 0,0.01 0,0.01 v 0 l 13.5,115.3 c 0,0 132.3,40.08 203.26,100.29 0,0 -39.52,-65.15 -159.31,-112.91 l -33.33,-111.92 -3.61,-195.09" /><path
         id="path252"
         style="fill:#33535f;fill-opacity:1;fill-rule:nonzero;stroke:none"
         d="m 3450.26,3382.99 c -22.88,81.46 -76.66,117.44 -136.31,121.24 -15.19,0.97 -45.98,-0.34 -45.98,-0.34 4.22,-34.51 -102.13,-58.85 -184.84,-39.38 -24.93,-6.55 -66.22,-15.91 -86.97,-22.8 -59.44,-19.74 -130.73,-94.07 -139.99,-287.95 0,0 -9.43,-416.73 -6.5,-537.77 146.77,-61.94 288.44,-69.68 373.99,-53 178.1,34.73 207.37,111.04 207.37,111.04 0,0 -1.69,105.92 -8.33,274.78 30.22,240.15 37.5,398.85 27.56,434.18" /><path
         id="path254"
         style="fill:#26b6a6;fill-opacity:1;fill-rule:nonzero;stroke:none"
         d="m 2204.77,3495.59 c -1.45,3.81 0.55,8.17 4.48,9.75 l 363.35,146.15 c 3.91,1.58 11.45,1.05 16.83,-1.18 l 10.97,-4.55 c 5.37,-2.24 10.91,-7.13 12.36,-10.94 l 89.3,-234.16 c 1.45,-3.8 -0.57,-8.18 -4.47,-9.75 l -363.35,-146.15 c -3.91,-1.57 -11.49,-1.04 -16.84,1.18 l -10.97,4.55 c -5.35,2.22 -10.91,7.15 -12.36,10.94 l -89.3,234.16" /><path
         id="path256"
         style="fill:#ffffff;fill-opacity:1;fill-rule:nonzero;stroke:none"
         d="m 2204.99,3501.3 v 0 c 0.53,1.16 1.36,2.21 2.43,3.01 -1.07,-0.8 -1.9,-1.85 -2.43,-3.01 m 398.31,143 c -0.95,0.56 -1.93,1.05 -2.9,1.46 l -3.31,1.37 3.32,-1.37 c 0.97,-0.4 1.94,-0.9 2.89,-1.46 m -19.68,7.64 c -1.74,0.3 -3.5,0.46 -5.15,0.46 -1.02,0 -2,-0.06 -2.91,-0.19 0.91,0.13 1.89,0.19 2.92,0.19 1.65,0 3.4,-0.15 5.14,-0.46" /><path
         id="path258"
         style="fill:#5cc8bc;fill-opacity:1;fill-rule:nonzero;stroke:none"
         d="m 2232.61,3489.85 -27.62,11.45 c 0.53,1.16 1.36,2.21 2.43,3.01 0.55,0.41 1.17,0.76 1.84,1.03 l 363.35,146.14 c 0.83,0.34 1.83,0.59 2.95,0.73 0.91,0.13 1.89,0.19 2.91,0.19 1.65,0 3.41,-0.16 5.15,-0.46 2.03,-0.35 4.03,-0.9 5.79,-1.64 l 7.68,-3.17 3.31,-1.37 c 0.97,-0.41 1.95,-0.9 2.9,-1.46 1.69,-0.98 3.32,-2.16 4.75,-3.42 l -375.44,-151.03" /><path
         id="path260"
         style="fill:#c3c5c2;fill-opacity:1;fill-rule:nonzero;stroke:none"
         d="m 2302.38,3252.64 c -3.87,2.5 -7.24,5.95 -8.32,8.79 l -89.3,234.16 c -0.72,1.9 -0.58,3.95 0.23,5.71 v 0 c -0.81,-1.77 -0.94,-3.81 -0.22,-5.71 l 89.3,-234.16 c 1.08,-2.83 4.45,-6.29 8.31,-8.79" /><path
         id="path262"
         style="fill:#14b099;fill-opacity:1;fill-rule:nonzero;stroke:none"
         d="m 2328.34,3243.87 c -1.51,0 -3.09,0.12 -4.67,0.37 -1.27,0.2 -2.5,0.47 -3.67,0.8 -0.92,0.26 -1.77,0.57 -2.6,0.9 v 0 l -10.96,4.56 c -1.36,0.57 -2.74,1.3 -4.06,2.14 -3.86,2.5 -7.23,5.96 -8.31,8.79 l -89.3,234.16 c -0.72,1.9 -0.59,3.94 0.22,5.71 l 27.62,-11.45 5.07,-2.12 c -2.34,-0.58 -3.38,-2.32 -2.45,-4.78 l 89.3,-234.16 c 0.76,-1.97 2.27,-3.4 4.09,-4.1 v 0 c 0.83,-0.31 1.71,-0.49 2.62,-0.49 0.47,0 0.94,0.05 1.42,0.14 l -0.89,-0.2 -1.51,-0.2 c -0.62,-0.05 -1.26,-0.07 -1.92,-0.07" /><path
         id="path264"
         style="fill:#c3c5c2;fill-opacity:1;fill-rule:nonzero;stroke:none"
         d="m 2608.76,3640.23 c -0.02,0.02 -0.03,0.02 -0.04,0.04 l 0.66,1.14 -0.62,-1.18" /><path
         id="path266"
         style="fill:#14b099;fill-opacity:1;fill-rule:nonzero;stroke:none"
         d="m 2328.62,3244.69 v 0 c -1.82,0.7 -3.33,2.13 -4.09,4.1 v 0 l -1.48,3.91 100.64,171.71 -191.08,65.44 219.57,-66.86 c 5.23,-1.59 10.34,-2.35 15.01,-2.35 9.28,0 16.8,3.03 20.03,8.64 l 18.75,32.56 102.75,178.43 c 0.01,-0.02 0.02,-0.02 0.04,-0.04 l -95.91,-180.15 189.24,-59.53 c 0.69,-1.91 0.52,-3.99 -0.35,-5.77 l -189.16,64.79 -21.1,-39.64 c -3.13,-5.84 -10.79,-8.99 -20.24,-8.99 -5.26,0 -11.07,0.97 -16.96,3 l -29.66,10.16 -96,-179.41" /><path
         id="path268"
         style="fill:#f6879f;fill-opacity:1;fill-rule:nonzero;stroke:none"
         d="m 2823.05,3305.71 c -67.5,-86.55 -162.01,-208.41 -215.43,-280.56 -38.36,36.84 -178.26,169.06 -192.64,189.67 -16.17,23.21 -15.41,54.99 -28.7,89.02 -10.86,27.81 -35.24,62.11 -41.52,76.3 -11.52,25.99 -36.85,38.91 -37.2,0.88 -0.29,-31.6 15.01,-69.16 13.26,-76.43 -0.75,-3.09 -13.24,3.23 -26.92,16.02 -6.04,5.64 -11.27,12.09 -16.12,18.77 l -28.42,39.26 -19.63,51.48 c 0,0 -7.92,-1.11 -17.89,-24.88 -28.79,-68.62 -24.95,-143.76 30.48,-204.19 32.91,-35.89 88.33,-85.07 145.82,-154.05 57.3,-68.75 164.9,-188.69 210.91,-215.26 41.36,-23.87 91.89,13.74 150.36,72.6 81.54,82.08 207.57,219.66 207.57,219.66 0,0 94,159.41 39.18,317.71 -69.12,-2.27 -86.89,-25.46 -173.11,-136" /><path
         id="path270"
         style="fill:#273e47;fill-opacity:1;fill-rule:nonzero;stroke:none"
         d="m 3018.24,3448.13 c 0,0 -66.35,-4.29 -108.46,-25.8 -11.38,-5.82 -43.7,-41.06 -74.5,-82.24 -60.48,-80.88 -165.93,-221.02 -165.93,-221.02 0,0 2.02,-132.98 132.29,-170.37 0,0 130.51,133.88 165.56,175.3 45.76,54.08 90.32,214.58 51.04,324.13" /></g></g></svg>